<svg xmlns="http://www.w3.org/2000/svg" aria-hidden="true" class="sprite">
  <defs>
    <linearGradient id="g-gold" x1="0%" y1="0%" x2="100%" y2="100%">
      <stop offset="0%" stop-color="#FFF3D6"/>
      <stop offset="35%" stop-color="#F7D070"/>
      <stop offset="70%" stop-color="#D49E35"/>
      <stop offset="100%" stop-color="#B37D1E"/>
    </linearGradient>
    <linearGradient id="g-teal" x1="0%" y1="0%" x2="100%" y2="100%">
      <stop offset="0%" stop-color="#3FA490"/>
      <stop offset="45%" stop-color="#24584E"/>
      <stop offset="100%" stop-color="#143A33"/>
    </linearGradient>
    <linearGradient id="g-coral" x1="0%" y1="0%" x2="100%" y2="100%">
      <stop offset="0%" stop-color="#FF9F7A"/>
      <stop offset="100%" stop-color="#F25C54"/>
    </linearGradient>
  </defs>

  <symbol id="g-sparkle" viewBox="-16 -16 32 32">
    <path d="M0-14Q0 0 14 0Q0 0 0 14Q0 0-14 0Q0 0 0-14Z" fill="url(#g-gold)"/>
    <circle cx="0" cy="0" r="2" fill="#fff"/>
  </symbol>

  <symbol id="g-sparkle-mini" viewBox="-10 -10 20 20">
    <path d="M0-8Q0 0 8 0Q0 0 0 8Q0 0-8 0Q0 0 0-8Z" fill="#FFE28A"/>
    <circle cx="0" cy="0" r="1.2" fill="#fff"/>
  </symbol>

  <!-- Categorías -->
  <symbol id="g-corte" viewBox="0 0 48 48" fill="none">
    <circle cx="14" cy="34" r="7" stroke="currentColor" stroke-width="2.4"/>
    <circle cx="34" cy="34" r="7" stroke="currentColor" stroke-width="2.4"/>
    <path d="M19 28.5 36 10" stroke="url(#g-gold)" stroke-width="2.4" stroke-linecap="round"/>
    <path d="M29 28.5 12 10" stroke="url(#g-gold)" stroke-width="2.4" stroke-linecap="round"/>
    <circle cx="24" cy="22" r="2.2" fill="#fff" stroke="currentColor" stroke-width="1"/>
  </symbol>

  <symbol id="g-unas" viewBox="0 0 48 48" fill="none">
    <rect x="17" y="20" width="14" height="16" rx="4" fill="#fff" stroke="currentColor" stroke-width="2.2"/>
    <rect x="20" y="10" width="8" height="10" rx="2" fill="currentColor"/>
    <path d="M19 30q5 2.5 10 0v4q0 2-3 2h-4q-3 0-3-2z" fill="url(#g-coral)"/>
    <path d="M24 6v4M34 14l3-3M14 14l-3-3M36 24h4M8 24H4" stroke="url(#g-gold)" stroke-width="2" stroke-linecap="round"/>
  </symbol>

  <symbol id="g-color" viewBox="0 0 48 48" fill="none">
    <path d="M24 8c10 12 12 18 12 24a12 12 0 0 1-24 0c0-6 2-12 12-24Z" fill="#EAF4F1" stroke="currentColor" stroke-width="2.3"/>
    <path d="M18 30c0-4 2-8 6-14" stroke="url(#g-gold)" stroke-width="2" stroke-linecap="round"/>
    <path d="M17 34q7-4 14 0" stroke="currentColor" stroke-width="1.8" stroke-linecap="round"/>
  </symbol>

  <symbol id="g-piel" viewBox="0 0 48 48" fill="none">
    <path d="M10 34c3-5 8-10 13-13 6-3 13-3 18 1-1 6-5 11-12 12-8 2-13 1-19 0Z" fill="#EAF4F1" stroke="currentColor" stroke-width="2.2"/>
    <path d="M23 21c-1-7 5-13 9-16 2 4 2 10 1 16" stroke="currentColor" stroke-width="2.2" stroke-linecap="round"/>
    <circle cx="20" cy="15" r="5" fill="url(#g-gold)"/>
    <circle cx="18.5" cy="13.5" r="1.6" fill="#fff"/>
  </symbol>

  <symbol id="g-barba" viewBox="0 0 48 48" fill="none">
    <path d="M12 34c5-6 14-14 24-20l5 4" stroke="currentColor" stroke-width="2.4" stroke-linecap="round"/>
    <path d="M36 14 20 4c6-3 15-1 21 6l-5 4Z" fill="#FFF8EB" stroke="url(#g-gold)" stroke-width="2"/>
    <circle cx="36" cy="14" r="2" fill="url(#g-gold)"/>
    <path d="M14 30c5-4 10 2 12-1 2 3 7-3 12 1-5 3-9 1-12 0-3 1-7 3-12-1Z" fill="currentColor"/>
  </symbol>

  <symbol id="g-masaje" viewBox="0 0 48 48" fill="none">
    <ellipse cx="24" cy="34" rx="14" ry="5" fill="#E8F1EE" stroke="currentColor" stroke-width="2"/>
    <ellipse cx="23" cy="26" rx="10" ry="4.2" fill="#FFF6E5" stroke="url(#g-gold)" stroke-width="2"/>
    <ellipse cx="25" cy="19" rx="6.5" ry="3.2" fill="#fff" stroke="currentColor" stroke-width="1.8"/>
    <path d="M25 8c3 4 3 7 0 8s-3-4 0-8Z" fill="url(#g-gold)"/>
  </symbol>

  <!-- Nav -->
  <symbol id="g-nav-home" viewBox="0 0 32 32" fill="none">
    <path d="M6 15 16 7l10 8v9a2 2 0 0 1-2 2h-5v-7h-6v7H8a2 2 0 0 1-2-2v-9Z" stroke="currentColor" stroke-width="2" stroke-linejoin="round"/>
  </symbol>
  <symbol id="g-nav-home-fill" viewBox="0 0 32 32">
    <path fill="currentColor" d="M16 5.5 4.5 14.8A1.5 1.5 0 0 0 4 16v9.5A2.5 2.5 0 0 0 6.5 28H12v-8h8v8h5.5a2.5 2.5 0 0 0 2.5-2.5V16a1.5 1.5 0 0 0-.5-1.2L16 5.5Z"/>
  </symbol>

  <symbol id="g-nav-map" viewBox="0 0 32 32" fill="none">
    <path d="m5 9 7-3 8 3 7-3v17l-7 3-8-3-7 3V9Z" stroke="currentColor" stroke-width="2" stroke-linejoin="round"/>
    <path d="M12 6v17M20 9v17" stroke="currentColor" stroke-width="1.6"/>
    <circle cx="20" cy="14" r="2.6" fill="url(#g-gold)"/>
  </symbol>

  <symbol id="g-nav-turnos" viewBox="0 0 32 32" fill="none">
    <rect x="6" y="8" width="20" height="18" rx="4" stroke="currentColor" stroke-width="2"/>
    <path d="M6 14h20M11 5v4M21 5v4" stroke="currentColor" stroke-width="2" stroke-linecap="round"/>
    <path d="m12 21 3 3 6-7" stroke="url(#g-gold)" stroke-width="2.4" stroke-linecap="round" stroke-linejoin="round"/>
  </symbol>

  <symbol id="g-nav-fav" viewBox="0 0 32 32" fill="none">
    <path d="M16 26S6 19.5 6 12.5A5.5 5.5 0 0 1 16 9a5.5 5.5 0 0 1 10 3.5C26 19.5 16 26 16 26Z" stroke="currentColor" stroke-width="2" stroke-linejoin="round"/>
  </symbol>
  <symbol id="g-nav-fav-fill" viewBox="0 0 32 32">
    <path fill="currentColor" d="M16 27S4.5 20 4.5 12A6.5 6.5 0 0 1 16 7.2 6.5 6.5 0 0 1 27.5 12C27.5 20 16 27 16 27Z"/>
  </symbol>

  <symbol id="g-nav-profile" viewBox="0 0 32 32" fill="none">
    <circle cx="16" cy="11" r="5" stroke="currentColor" stroke-width="2"/>
    <path d="M7 26c1.5-4.2 5-6.2 9-6.2s7.5 2 9 6.2" stroke="currentColor" stroke-width="2" stroke-linecap="round"/>
  </symbol>
</svg>
